<svg id="visual" viewBox="0 0 900 600" width="900" height="600" xmlns="http://www.w3.org/2000/svg" xmlns:xlink="http://www.w3.org/1999/xlink" version="1.1"><g transform="translate(498.9685850207634 255.80354789588927)"><path d="M136.6 -162.7C161.4 -142 155.1 -84.1 151.1 -37C147.1 10.2 145.4 46.6 137.7 97.9C130 149.3 116.3 215.6 77 244.1C37.6 272.5 -27.4 263.1 -77.2 235C-127.1 207 -161.8 160.2 -194.7 109.4C-227.6 58.6 -258.6 3.8 -251.9 -46.3C-245.3 -96.3 -201.1 -141.6 -152.8 -158.1C-104.6 -174.6 -52.3 -162.3 1.8 -164.5C55.9 -166.7 111.8 -183.3 136.6 -162.7" fill="#aab7ff"></path></g></svg>