<svg id="visual" viewBox="0 0 900 600" width="900" height="600" xmlns="http://www.w3.org/2000/svg" xmlns:xlink="http://www.w3.org/1999/xlink" version="1.1"><g transform="translate(440.8653545290114 316.54594742242836)"><path d="M164.3 -201.2C200.1 -165.8 207.4 -101.8 198.4 -50.2C189.3 1.4 163.9 40.7 137.9 73.8C111.9 106.9 85.2 133.8 47.9 159.5C10.6 185.1 -37.3 209.6 -84.7 204.5C-132.1 199.5 -179.1 165 -183.3 122.7C-187.6 80.5 -149.2 30.5 -136.9 -21.5C-124.6 -73.5 -138.5 -127.5 -120 -166C-101.6 -204.4 -50.8 -227.2 6.7 -235.2C64.3 -243.3 128.6 -236.5 164.3 -201.2" fill="#aab7ff"></path></g></svg>